<?xml version="1.0" ?><svg id="Icons" style="enable-background:new 0 0 32 32;" version="1.1" viewBox="0 0 32 32" xml:space="preserve" xmlns="http://www.w3.org/2000/svg" xmlns:xlink="http://www.w3.org/1999/xlink"><style type="text/css">
	.st0{fill:none;stroke:#000000;stroke-width:2;stroke-linecap:round;stroke-linejoin:round;stroke-miterlimit:10;}
	.st1{fill:none;stroke:#000000;stroke-width:2;stroke-linejoin:round;stroke-miterlimit:10;}
</style><path class="st0" d="M31,22.6c-0.9,0.2-1.8,0-2.1-0.6c-0.4-0.6-0.1-1.4,0.5-2.1c-0.7-0.7-1.7-1.3-2.7-1.6c-0.3,0.9-0.9,1.5-1.6,1.5  c-0.7,0-1.3-0.6-1.6-1.5c-1,0.3-2,0.8-2.7,1.6c0.6,0.7,0.9,1.5,0.5,2.1c-0.4,0.6-1.2,0.8-2.1,0.6c-0.1,0.5-0.2,1-0.2,1.6  s0.1,1.1,0.2,1.6c0.9-0.2,1.8,0,2.1,0.6c0.4,0.6,0.1,1.4-0.5,2.1c0.7,0.7,1.7,1.3,2.7,1.6c0.3-0.9,0.9-1.5,1.6-1.5  c0.7,0,1.3,0.6,1.6,1.5c1-0.3,2-0.8,2.7-1.6c-0.6-0.7-0.9-1.5-0.5-2.1c0.4-0.6,1.2-0.8,2.1-0.6c0.1-0.5,0.2-1,0.2-1.6  S31.1,23.1,31,22.6z"/><line class="st0" x1="25" x2="25" y1="24" y2="24"/><path class="st0" d="M24,13H4l2-4.6C6.6,7,8,6,9.6,6h8.7c1.6,0,3,1,3.7,2.4L24,13z"/><path class="st0" d="M8,23H2v2c0,1.1,0.9,2,2,2h2c1.1,0,2-0.9,2-2V23z"/><line class="st0" x1="1" x2="4.4" y1="12" y2="12"/><line class="st0" x1="24" x2="27" y1="12" y2="12"/><path class="st0" d="M19,23H9l1.4-2.9c0.3-0.7,1-1.1,1.8-1.1h3.5c0.8,0,1.5,0.4,1.8,1.1L19,23z"/><line class="st0" x1="4" x2="7" y1="18" y2="18"/><path class="st0" d="M19.3,23H3c-1.1,0-2-0.9-2-2v-4c0-2.2,1.8-4,4-4h18c2.2,0,4,1.8,4,4v1.3"/></svg>