<svg xmlns="http://www.w3.org/2000/svg" height="512" version="1.1" width="512" style=""><rect id="backgroundrect" width="100%" height="100%" x="0" y="0" fill="none" stroke="none"/>
  
<g class="currentLayer" style=""><title>Layer 1</title><g id="layer1" class="">
    <path d="M288.2543925046921,82.68157958984375 C287.4220325046921,83.89451958984375 286.51572250469206,84.40081958984376 285.4418925046921,84.77532958984375 C281.95061250469206,85.99295958984374 278.7483125046921,86.55383958984373 274.6606425046921,87.05657958984375 C268.4135925046921,87.82491958984372 261.6859625046921,89.09376958984376 255.53564250469208,90.43157958984375 C247.66823250469207,92.14287958984374 239.94782250469208,94.45862958984378 232.28564250469208,96.93157958984375 C225.34444250469207,99.17181958984372 218.48836250469208,101.69185958984372 211.75439250469208,104.49407958984375 C205.34842250469208,107.15981958984378 199.0614725046921,110.15625958984378 192.87939250469208,113.30657958984375 C187.6134825046921,115.99001958984377 182.45171250469207,118.86679958984371 177.37939250469208,121.90032958984375 C172.17382250469208,125.01356958984377 167.06011250469209,128.30053958984377 162.06689250469208,131.74407958984375 C156.35009250469207,135.6866395898437 150.82377250469207,139.85701958984373 145.31689250469208,144.08782958984375 C142.1243325046921,146.5406095898437 138.90356250469208,148.99268958984374 135.87939250469208,151.65032958984375 C133.83817250469207,153.44414958984373 134.03480250469207,153.72950958984376 131.37939250469208,155.52532958984375 C129.34422250469208,156.90168958984373 126.85882250469207,156.70532958984376 124.56689250469208,155.61907958984375 C122.27498250469208,154.5328195898437 118.47314250469208,152.27532958984375 118.47314250469208,152.27532958984375 C118.47314250469208,152.27532958984375 123.03731250469208,148.86375958984377 126.62939250469208,146.36907958984375 C126.56369250469207,146.37957958984373 126.47163250469208,146.42317958984376 126.41064250469208,146.43157958984375 C124.12788250469208,146.74648958984375 121.19000250469207,145.89516958984376 118.91064250469208,145.55657958984375 C117.52684250469208,145.35101958984376 116.08869250469208,145.29117958984375 114.69189250469208,145.36907958984375 C111.65302250469207,145.5385395898437 108.67731250469208,146.24559958984378 105.69189250469208,146.83782958984375 C90.98156850469208,149.75599958984378 76.27907850469208,152.89754958984372 61.87939250469208,157.08782958984375 C51.50552550469208,160.10659958984377 41.237549504692076,163.56941958984373 31.285642504692078,167.77532958984375 C27.97611650469208,169.17401958984374 24.62166250469208,170.58397958984375 21.660642504692078,172.61907958984375 C18.930261504692076,174.49565958984374 16.37913850469208,176.7135795898438 14.316892504692078,179.30657958984375 C12.369725504692077,181.75488958984374 11.025422504692077,184.66435958984374 9.691892504692078,187.49407958984375 C8.447470504692077,190.13471958984377 7.143886404692077,192.78874958984375 6.5668925046920785,195.65032958984375 C5.668909704692077,200.10385958984375 6.1019713046920785,204.73226958984372 6.129392504692078,209.27532958984375 C6.158935504692078,214.17003958984373 6.305408704692078,219.09164958984377 6.7856425046920785,223.96282958984375 C7.278095904692077,228.95795958984377 8.004520604692077,233.29199958984373 8.223142504692078,238.30657958984375 C8.268890504692077,239.35582958984372 8.250874704692079,241.06892958984378 7.8168925046920785,242.02532958984375 C7.4902893046920775,242.74507958984373 7.4209358046920775,242.89383958984376 7.191892504692078,243.65032958984375 C6.985435704692078,244.33220958984373 7.318038504692078,245.08899958984375 7.598142504692078,245.74407958984375 C8.268683304692077,247.31227958984374 9.329645504692078,248.72557958984373 10.535642504692078,249.93157958984375 C11.138640504692077,250.53457958984376 12.009969504692078,250.81420958984376 12.629392504692078,251.40032958984375 C13.532882504692077,252.25522958984374 14.057146504692078,253.46353958984378 14.941892504692078,254.33782958984375 C16.82036650469208,256.19409958984374 18.879498504692076,257.93304958984373 21.223142504692078,259.15032958984375 C24.53697750469208,260.87150958984375 28.267890504692076,261.7041495898437 31.910642504692078,262.52532958984375 C35.83334350469208,263.40960958984374 39.87183850469208,263.85133958984375 43.87939250469208,264.18157958984375 C46.66528350469208,264.41113958984374 49.030892504692076,264.71079958984376 52.25439250469208,264.40032958984375 C54.559843504692076,264.35702958984376 54.193677504692076,264.3773295898437 56.28564250469208,264.33782958984375 C54.57715550469208,259.44130958984374 53.62939250469208,254.16069958984377 53.62939250469208,248.68157958984375 C53.62939250469208,222.47503958984373 74.89160750469208,201.24407958984375 101.09814250469208,201.24407958984375 C127.30467250469208,201.24407958984375 148.53564250469208,222.47503958984373 148.53564250469208,248.68157958984375 C148.53564250469208,253.50839958984375 147.81279250469208,258.1681495898437 146.47314250469208,262.55657958984375 C147.9719225046921,262.5310795898437 147.6825225046921,262.5526295898438 149.28564250469208,262.52532958984375 C167.35582250469207,262.30528958984377 183.51031250469208,262.0498795898437 198.94189250469208,261.80657958984375 C199.0882425046921,257.32598958984374 199.3378825046921,252.86221958984373 199.69189250469208,248.40032958984375 C208.88295250469207,245.10908958984373 219.24433250469207,247.48331958984375 228.91064250469208,246.86907958984375 C232.05473250469208,239.09261958984376 234.9705825046921,229.90462958984375 239.44189250469208,222.21282958984375 C239.1081225046921,218.39782958984375 233.35150250469206,217.20432958984372 231.59814250469208,213.77532958984375 C228.30909250469207,208.34325958984374 218.26082250469207,205.07978958984376 221.00439250469208,197.36907958984375 C236.53831250469207,182.54735958984372 250.94536250469207,166.18174958984378 267.1606425046921,152.05657958984375 C266.00147250469206,152.13053958984375 264.6867525046921,152.20231958984374 263.7231425046921,152.27532958984375 C249.37466250469208,153.36253958984378 235.05190250469207,154.83739958984376 220.75439250469208,156.46282958984375 C215.36460250469207,157.07557958984376 205.44189250469208,157.83782958984375 205.44189250469208,157.83782958984375 C205.44189250469208,157.83782958984375 205.49205250469208,153.90555958984373 204.94189250469208,152.05657958984375 C204.38921250469207,150.19942958984376 202.22314250469208,146.93157958984375 202.22314250469208,146.93157958984375 L210.47314250469208,113.71282958984375 C210.47314250469208,113.71282958984375 219.7565725046921,109.67758958984376 224.53564250469208,108.05657958984375 C231.95139250469208,105.54123958984371 239.54207250469207,103.58574958984377 247.16064250469208,101.77532958984375 C254.8519425046921,99.94763958984379 262.62377250469206,98.32225958984372 270.4418925046921,97.15032958984375 C276.55350250469206,96.23420958984377 282.71889250469206,95.76445958984374 288.8793925046921,95.27532958984375 C292.5763425046921,94.98179958984372 299.9731425046921,94.65032958984375 299.9731425046921,94.65032958984375 C299.9731425046921,94.65032958984375 296.6392225046921,113.14609958984374 294.5356425046921,122.30657958984375 C292.3208325046921,131.95150958984374 286.9731425046921,151.02532958984375 286.9731425046921,151.02532958984375 C286.9731425046921,151.02532958984375 279.1981525046921,151.37292958984375 271.9106425046921,151.77532958984375 C279.2466225046921,156.37466958984373 284.4708125046921,164.18819958984375 291.0043925046921,169.90032958984375 C298.64905250469207,166.58982958984376 307.0361525046921,162.30680958984374 315.4731425046921,159.99407958984375 C317.3680025046921,156.64660958984376 316.1132225046921,151.11259958984374 316.3793925046921,146.96282958984375 C316.98436250469206,141.4163895898438 314.42357250469206,133.68351958984374 318.9418925046921,129.71282958984375 C319.0671325046921,129.70262958984375 319.19158250469206,129.69134958984375 319.3168925046921,129.68157958984375 L322.8168925046921,94.52532958984375 C322.8168925046921,94.52532958984375 332.52783250469207,94.53948958984375 337.3793925046921,94.74407958984375 C344.3764225046921,95.03908958984374 351.3724025046921,95.59275958984375 358.3481425046921,96.21282958984375 C365.4871925046921,96.84741958984375 372.6273225046921,97.51636958984375 379.7231425046921,98.52532958984375 C384.8857425046921,99.25940958984376 390.2591425046921,100.17500958984374 395.1293925046921,101.24407958984375 C396.2964225046921,101.50025958984372 397.92846250469205,102.23759958984374 397.9731425046921,103.43157958984375 C398.2482825046921,110.77759958984376 398.2931825046921,117.76992958984374 398.3793925046921,124.93157958984375 C398.4714925046921,132.58093958984375 398.4731425046921,147.86907958984375 398.4731425046921,147.86907958984375 C398.4731425046921,147.86907958984375 393.24395250469206,147.89716958984377 389.4106425046921,147.93157958984375 C389.2549725046921,151.75758958984375 389.08011250469207,155.61153958984374 389.3168925046921,159.33782958984375 C396.9689325046921,162.56351958984374 406.19624250469207,165.15481958984378 413.6606425046921,169.83782958984375 C417.7305425046921,169.66929958984372 418.9230625046921,163.83981958984373 422.3793925046921,162.08782958984375 C427.7644725046921,158.6956895898437 431.0814125046921,148.72023958984374 438.7856425046921,151.43157958984375 C454.2393225046921,167.65027958984376 471.36064250469207,182.53529958984376 485.9106425046921,199.65032958984375 C482.8303525046921,206.13577958984376 477.1239225046921,210.87900958984375 471.7856425046921,215.83782958984375 C479.15997250469206,224.08143958984374 483.6934025046921,234.91271958984373 483.8481425046921,246.80657958984375 C486.0579025046921,246.46732958984376 488.31582250469205,246.13716958984372 490.2856425046921,246.83782958984375 C491.4347525046921,247.03095958984375 492.7672425046921,246.96480958984375 494.1606425046921,246.86907958984375 C494.54659250469206,246.56394958984373 494.9386025046921,246.27294958984373 495.3168925046921,245.96282958984375 C497.8382725046921,243.89578958984373 500.12064250469206,241.54845958984373 502.2231425046921,239.05657958984375 C503.54814250469207,237.48618958984378 505.24215250469206,236.00682958984373 505.7856425046921,234.02532958984375 C506.4716125046921,231.52433958984375 505.2949525046921,232.09432958984377 505.1606425046921,226.24407958984375 C504.9489325046921,217.02240958984373 505.1693925046921,207.79010958984372 504.5356425046921,198.58782958984375 C504.28425250469206,194.93957958984373 504.2120225046921,190.78569958984377 503.2856425046921,187.68157958984375 C502.9604225046921,186.59181958984374 501.9181825046921,185.52545958984376 501.1918925046921,184.65032958984375 C500.5226525046921,183.84393958984379 499.2082625046921,183.69244958984376 499.0981425046921,182.65032958984375 C498.67936250469205,178.68738958984375 498.63480250469206,174.5468695898437 498.4418925046921,170.49407958984375 C498.3174125046921,167.87904958984376 498.46698250469206,165.25599958984378 498.2543925046921,162.65032958984375 C498.2285925046921,162.82549958984373 498.18258250469205,163.0101395898438 498.1293925046921,163.18157958984375 C497.86427250469205,164.03605958984372 496.8915225046921,164.48451958984379 496.4731425046921,165.27532958984375 C496.02878250469206,166.11523958984378 495.7883825046921,167.05724958984376 495.6293925046921,167.99407958984375 C495.3194125046921,169.82060958984374 495.3283425046921,171.70576958984373 495.4106425046921,173.55657958984375 C495.4966425046921,175.49135958984374 496.01054250469207,177.37571958984375 496.1606425046921,179.30657958984375 C496.2554425046921,180.52597958984376 496.75185250469207,181.87673958984374 496.2543925046921,182.99407958984375 C495.8814625046921,183.83169958984377 495.00820250469206,184.42555958984372 494.1606425046921,184.77532958984375 C492.5088225046921,185.45698958984372 490.58995250469206,185.40388958984374 488.8168925046921,185.18157958984375 C486.98650250469206,184.95206958984375 485.1495425046921,184.34808958984377 483.5668925046921,183.40032958984375 C480.4500625046921,181.53382958984378 478.1520825046921,178.5465995898437 475.5981425046921,175.96282958984375 C471.40914250469206,171.72490958984372 467.1635025046921,167.49510958984376 463.5668925046921,162.74407958984375 C462.6483725046921,161.53073958984373 461.4205225046921,160.36851958984374 461.1606425046921,158.86907958984375 C460.9348225046921,157.5661995898438 461.20820250469205,156.07260958984375 461.9731425046921,154.99407958984375 C463.4427025046921,152.92221958984373 466.18240250469205,152.12292958984375 468.4731425046921,151.02532958984375 C471.1833525046921,149.72671958984375 474.0404125046921,148.61907958984375 476.9731425046921,147.96282958984375 C479.09646250469206,147.48769958984371 481.2973625046921,147.35232958984375 483.4731425046921,147.33782958984375 C485.5762025046921,147.32382958984374 487.7317225046921,147.29301958984377 489.7543925046921,147.86907958984375 C491.6024125046921,148.39539958984375 493.5184825046921,149.13755958984376 494.8793925046921,150.49407958984375 C495.0601825046921,150.67428958984374 495.23152250469207,150.88120958984376 495.3793925046921,151.08782958984375 C494.03560250469206,147.89556958984372 492.0214325046921,145.08446958984376 490.0356425046921,142.24407958984375 C489.65119250469206,142.10317958984376 485.2766825046921,140.4803295898438 482.8481425046921,139.90032958984375 C481.09421250469205,139.48144958984375 477.8168925046921,139.49407958984375 477.8168925046921,139.49407958984375 C477.8168925046921,139.49407958984375 473.57696250469206,133.34840958984375 471.2231425046921,130.46282958984375 C468.36258250469206,126.95602958984375 465.33964250469205,123.58957958984377 462.0981425046921,120.43157958984375 C458.5674925046921,116.99186958984376 454.82388250469205,113.73133958984374 450.8793925046921,110.77532958984375 C446.9795325046921,107.85274958984371 438.6293925046921,102.80657958984375 438.6293925046921,102.80657958984375 L445.5043925046921,99.40032958984375 C444.48168250469206,98.26909958984379 445.8883925046921,95.33664958984377 444.8168925046921,94.02532958984375 C444.0042025046921,93.03074958984371 442.64453250469205,93.03056958984371 440.9418925046921,92.99407958984375 C436.3315625046921,92.89527958984377 432.01174250469205,92.64572958984377 427.4106425046921,92.33782958984375 C421.5140225046921,91.94322958984378 415.6760325046921,91.01626958984377 409.8168925046921,90.24407958984375 C404.0083225046921,89.47855958984371 398.2344825046921,88.35187958984375 392.4106425046921,87.71282958984375 C380.3628425046921,86.39080958984374 368.2667925046921,85.57593958984376 356.1606425046921,84.99407958984375 C342.89932250469207,84.35668958984377 329.5868825046921,84.57031958984373 316.3168925046921,84.15032958984375 C311.3547825046921,83.99327958984372 306.3996925046921,83.78497958984372 301.4418925046921,83.52532958984375 C297.03806250469205,83.29469958984373 292.66182250469205,82.57661958984374 288.2543925046921,82.68157958984375 zM410.5356425046921,105.21282958984375 C410.5356425046921,105.21282958984375 417.32741250469206,106.85789958984378 420.5981425046921,108.05657958984375 C425.1772525046921,109.73476958984372 429.7019325046921,111.65507958984375 433.9106425046921,114.11907958984375 C439.17431250469207,117.20070958984377 444.1065425046921,120.90948958984376 448.6918925046921,124.93157958984375 C451.81230250469207,127.66867958984375 455.08401250469205,130.41284958984374 457.2856425046921,133.93157958984375 C459.23303250469206,137.04395958984378 458.2362125046921,136.90321958984373 455.3793925046921,138.24407958984375 C449.4331325046921,141.03499958984378 442.8111525046921,142.11109958984377 436.4106425046921,143.58782958984375 C430.2885025046921,145.00033958984375 417.8793925046921,146.93157958984375 417.8793925046921,146.93157958984375 L410.5356425046921,105.21282958984375 zM205.66064250469208,115.80657958984375 C203.4394225046921,124.89210958984376 200.24509250469208,134.69458958984376 198.00439250469208,143.77532958984375 C198.00439250469208,143.77532958984375 194.54886250469207,142.98000958984375 192.87939250469208,143.15032958984375 C191.44660250469207,143.29649958984373 188.82127250469208,144.15422958984374 186.91064250469208,145.15032958984375 C185.2435025046921,146.01947958984374 183.23878250469207,147.30110958984375 181.78564250469208,148.49407958984375 C180.21975250469208,149.77960958984374 178.42308250469208,152.0733895898437 177.69189250469208,153.96282958984375 C176.6302325046921,156.70622958984376 177.69189250469208,161.90032958984375 177.69189250469208,161.90032958984375 C177.69189250469208,161.90032958984375 173.54232250469207,162.27645958984374 170.87939250469208,162.55657958984375 C168.23100250469207,162.83516958984376 162.91064250469208,163.18157958984375 162.91064250469208,163.18157958984375 C162.91064250469208,163.18157958984375 165.49424250469207,152.44223958984378 167.31689250469208,147.24407958984375 C168.54922250469207,143.7295195898438 171.72314250469208,136.96282958984375 171.72314250469208,136.96282958984375 C171.72314250469208,136.96282958984375 175.61669250469208,133.1683695898438 177.78564250469208,131.52532958984375 C181.94134250469207,128.37724958984376 186.46631250469207,125.71666958984372 191.00439250469208,123.15032958984375 C195.76362250469208,120.45892958984376 205.66064250469208,115.80657958984375 205.66064250469208,115.80657958984375 zM70.28564250469208,165.86907958984375 C71.02731350469207,165.85007958984374 71.74717050469208,165.93460958984372 72.37939250469208,166.30657958984375 C72.99930950469208,166.67133958984374 73.46771650469208,167.49582958984377 73.41064250469208,168.21282958984375 C73.31194250469208,169.4527595898437 71.97264250469208,170.26578958984373 71.09814250469208,171.15032958984375 C68.19858950469208,174.08317958984378 64.70234850469208,176.33492958984374 61.47314250469208,178.90032958984375 C56.953775504692075,182.49065958984374 52.625965504692076,186.34936958984372 47.84814250469208,189.58782958984375 C45.775146504692074,190.99292958984375 43.67927850469208,192.42272958984375 41.34814250469208,193.33782958984375 C39.28144550469208,194.14912958984377 37.045113504692075,194.48601958984375 34.84814250469208,194.80657958984375 C30.76013750469208,195.40305958984374 26.63530050469208,195.70663958984375 22.504392504692078,195.65032958984375 C21.03079850469208,195.63022958984374 19.339802504692077,196.03791958984374 18.098142504692078,195.24407958984375 C17.280429504692076,194.72129958984374 17.247197504692082,193.46134958984373 16.629392504692078,192.71282958984375 C15.683935504692078,191.56732958984372 14.454864504692077,190.64992958984374 13.254392504692078,189.77532958984375 C12.595897504692077,189.29559958984373 11.301154504692077,189.32782958984376 11.160642504692078,188.52532958984375 C10.741004504692079,186.12863958984371 14.115968504692077,184.63893958984374 15.785642504692078,182.86907958984375 C17.34646750469208,181.21460958984375 18.69709150469208,179.09989958984374 20.816892504692078,178.27532958984375 C21.79353050469208,177.89543958984376 22.922002504692077,178.51608958984377 23.941892504692078,178.27532958984375 C26.526508504692078,177.66518958984375 28.623599504692077,175.7534295898438 31.066892504692078,174.71282958984375 C34.13665050469208,173.40542958984372 37.33565750469208,172.3827395898437 40.50439250469208,171.33782958984375 C43.69458750469208,170.28583958984376 46.89015650469208,169.16709958984376 50.16064250469208,168.40032958984375 C53.05676650469208,167.7213095898437 55.990127504692076,167.29991958984374 58.94189250469208,166.93157958984375 C61.44620150469208,166.61907958984375 63.98284050469208,166.41145958984373 66.50439250469208,166.30657958984375 C67.72591350469207,166.25577958984377 69.04952650469208,165.90084958984374 70.28564250469208,165.86907958984375 zM101.09814250469208,207.18157958984375 C78.18080350469208,207.18157958984375 59.59814250469208,225.76423958984373 59.59814250469208,248.68157958984375 C59.59814250469208,271.59890958984374 78.18080350469208,290.18157958984375 101.09814250469208,290.18157958984375 C124.01548250469207,290.18157958984375 142.56689250469208,271.59890958984374 142.56689250469208,248.68157958984375 C142.56689250469208,225.76423958984373 124.01548250469207,207.18157958984375 101.09814250469208,207.18157958984375 zM101.09814250469208,218.49407958984375 C117.76619250469207,218.49407958984375 131.25439250469208,232.01351958984372 131.25439250469208,248.68157958984375 C131.25439250469208,265.34962958984374 117.76619250469207,278.86907958984375 101.09814250469208,278.86907958984375 C84.43008750469208,278.86907958984375 70.91064250469208,265.34962958984374 70.91064250469208,248.68157958984375 C70.91064250469208,232.01351958984372 84.43008750469208,218.49407958984375 101.09814250469208,218.49407958984375 zM467.5356425046921,219.99407958984375 C467.1071925046921,220.44854958984376 466.6942325046921,220.93346958984375 466.2856425046921,221.40032958984375 C469.5210025046921,229.03592958984376 473.87969250469206,237.53966958984375 476.2543925046921,246.02532958984375 C476.76651250469206,246.42195958984377 477.3036325046921,246.68456958984376 477.8793925046921,246.86907958984375 C477.7411525046921,236.57195958984374 473.87210250469207,227.17707958984374 467.5356425046921,219.99407958984375 zM352.1293925046921,224.74407958984375 C342.4967125046921,224.97062958984372 333.15297250469206,227.34954958984378 324.7543925046921,231.99407958984375 C313.1084925046921,237.99128958984375 304.3643325046921,248.13791958984376 299.3168925046921,259.93157958984375 C327.38111250469206,259.35243958984375 354.85837250469206,258.8030095898437 386.1293925046921,258.33782958984375 C387.5167725046921,258.31722958984375 388.85510250469207,258.27217958984374 390.2231425046921,258.24407958984375 C389.4124225046921,254.76829958984376 388.9731425046921,251.15427958984372 388.9731425046921,247.43157958984375 C388.9731425046921,244.25466958984373 389.28434250469206,241.15203958984375 389.8793925046921,238.15032958984375 C379.86215250469206,229.87640958984377 367.27657250469207,224.76711958984373 354.0668925046921,224.74407958984375 C353.4224125046921,224.74024958984376 352.7715725046921,224.72897958984373 352.1293925046921,224.74407958984375 zM395.1606425046921,243.02532958984375 C395.00804250469207,244.47202958984377 394.9106425046921,245.94447958984375 394.9106425046921,247.43157958984375 C394.9106425046921,260.96643958984373 401.38239250469206,272.98069958984377 411.4106425046921,280.55657958984375 C411.04675250469205,266.37983958984375 404.79567250469205,253.07756958984373 395.1606425046921,243.02532958984375 z" id="path3796" style="fill:#222222;fill-opacity:1;stroke:none"/>
    <path d="m324.3655125046921,162.79755697265625 c-1.52034,6.05868 -9.34893,4.51312 -13.6875,7.3125 c-7.20156,2.66035 -14.11474,6.08359 -20.75,10.03125 c-6.67089,-6.78695 -13.43823,-13.4785 -20.15625,-20.21875 c-13.4375,13.4375 -26.875,26.875 -40.3125,40.3125 c6.74045,6.71782 13.43144,13.48574 20.21875,20.15625 c-6.43334,10.69935 -11.26458,22.394190000000002 -14.3125,34.4375 c-9.5,0 -19,0 -28.5,0 c0,19 0,38 0,57 c9.5,0 19,0 28.5,0 c3.10194,12.10119 7.78172,23.73324 14.28125,34.40622 c-6.72917,6.7292000000000005 -13.45833,13.4584 -20.1875,20.1875 c13.4375,13.448 26.875,26.89587 40.3125,40.34377 c6.71288,-6.735 13.46985,-13.4265 20.15625,-20.18747 c10.72676,6.40527 22.38474,11.20747 34.4375,14.24997 c0,9.5 0,19 0,28.5 c19,0 38,0 57,0 c0,-9.5 0,-19 0,-28.5 c12.05317,-3.0363 23.70999,-7.8476 34.4375,-14.24997 c6.68729,6.7601700000000005 13.44273,13.45317 20.15625,20.18747 c13.44792,-13.4479 26.89583,-26.89577 40.34375,-40.34377 c-6.72917,-6.7291 -13.45833,-13.4583 -20.1875,-20.1875 c6.42548,-10.721 11.18392,-22.28825 14.25,-34.40622 c9.5,0 19,0 28.5,0 c0,-19 0,-38 0,-57 c-9.5,0 -19,0 -28.5,0 c-3.06086,-12.10093 -7.84771,-23.69556 -14.25,-34.4375 c6.7601700000000005,-6.68729 13.45318,-13.44273 20.1875,-20.15625 c-13.44792,-13.4375 -26.89583,-26.875 -40.34375,-40.3125 c-6.71782,6.74045 -13.48574,13.43144 -20.15625,20.21875 c-10.72481,-6.44029 -22.37339,-11.28343 -34.4375,-14.25 c0,-9.52083 0,-19.04167 0,-28.5625 c-19,0 -38,0 -57,0 c0,8.48958 0,16.97917 0,25.46875 zm28.5,54.03125 c33.66352,-0.7846200000000005 64.50545,27.78415 66.40304,61.43339 c2.80921,31.58671 -19.84643,62.93673 -50.71554,69.81663 c-29.25703,7.3089 -62.19699,-7.7596 -75.1875,-34.84377 c-14.12822,-27.40316 -6.08222,-64.30216 18.875,-82.5625 c11.56346,-8.86893 25.98129,-13.91577 40.625,-13.84375 z" id="rect4025-1" style="color: rgb(0, 0, 0); fill-opacity: 1; fill-rule: nonzero; stroke: none; stroke-width: 10; marker: none; visibility: visible; display: inline; overflow: visible; fill: rgb(225, 0, 43);"/>
  </g><rect fill="" stroke-dashoffset="" fill-rule="nonzero" id="svg_1" x="495" y="148" width="4" height="36" style="color: rgb(0, 0, 0);"/><rect fill="" stroke-dashoffset="" fill-rule="nonzero" id="svg_2" x="492" y="145" width="7" height="4" style="color: rgb(0, 0, 0);"/><rect fill="" stroke-dashoffset="" fill-rule="nonzero" id="svg_4" x="623" y="173" width="2" height="0" style="color: rgb(0, 0, 0);"/><rect fill="" stroke-dashoffset="" fill-rule="nonzero" id="svg_6" x="494" y="147" width="0" height="2" style="color: rgb(0, 0, 0);"/><rect fill="" stroke-dashoffset="" fill-rule="nonzero" id="svg_8" x="493" y="147" width="3" height="2" style="color: rgb(0, 0, 0);"/><rect fill="" stroke-dashoffset="" fill-rule="nonzero" id="svg_10" x="492" y="147" width="2" height="0" style="color: rgb(0, 0, 0);"/><rect fill="" stroke-dashoffset="" fill-rule="nonzero" id="svg_12" x="493" y="146" width="3" height="1" style="color: rgb(0, 0, 0);"/><rect fill="" stroke-dashoffset="" fill-rule="nonzero" id="svg_14" x="494" y="147" width="1" height="2" style="color: rgb(0, 0, 0);"/><rect fill="" stroke-dashoffset="" fill-rule="nonzero" id="svg_3" x="494" y="146" width="1" height="2" style="color: rgb(0, 0, 0);"/><rect fill="" stroke-dashoffset="" fill-rule="nonzero" id="svg_7" x="494" y="149" width="2" height="2" style="color: rgb(0, 0, 0);"/></g></svg>